<svg width="94" height="45" viewBox="0 0 94 45" fill="none" xmlns="http://www.w3.org/2000/svg">
<path d="M92.7805 24.8839H86.8796L86.857 33.1361C86.857 37.104 90.2438 37.9111 92.8121 38.0196C93.149 38.0332 93.4135 38.3135 93.4135 38.6527V43.9996C93.4135 44.3591 93.1196 44.6417 92.7601 44.6327C88.3153 44.5264 84.6119 43.3236 82.4031 41.056C79.3124 37.8817 79.3848 34.253 79.4074 33.9342L79.473 11.122C79.473 10.7738 79.7578 10.4912 80.106 10.4912H86.2986C86.649 10.4912 86.9339 10.7783 86.9316 11.1288L86.8796 18.6281H92.7805C93.1309 18.6281 93.4135 18.9107 93.4135 19.2611V24.2509C93.4135 24.6013 93.1309 24.8839 92.7805 24.8839Z" fill="#0A4EE4"/>
<path d="M38.54 43.0082L38.5559 7.12133C38.5559 6.77089 38.2733 6.48828 37.9228 6.48828H31.719C31.3685 6.48828 31.0859 6.77089 31.0859 7.12133V43.0082C31.0859 43.3586 31.3685 43.6412 31.719 43.6412H37.907C38.2574 43.6412 38.54 43.3586 38.54 43.0082Z" fill="#0A4EE4"/>
<path d="M71.6663 28.9893C69.7672 28.2749 67.2486 27.7368 65.0216 27.3705C63.9183 27.1761 63.0388 26.8935 62.4035 26.5272C61.3161 25.9733 61.3002 24.255 62.3719 23.631C63.5882 22.8058 66.559 22.8827 67.8138 23.8096C68.2954 24.0945 68.6797 24.6168 68.9555 25.2408C69.0482 25.451 69.2811 25.5596 69.5004 25.494L75.0893 23.7916C75.4623 23.6785 75.641 23.258 75.4736 22.9053C74.7705 21.4154 73.674 20.1493 72.1796 19.1477C68.5305 16.5138 61.0018 16.5522 57.5065 19.2834C54.3774 21.3023 53.5974 26.8279 56.0143 29.6789C58.0604 32.1206 61.3613 32.9956 64.5604 33.6693L64.5921 33.6761C65.9825 33.8932 68.3609 34.3612 69.1138 34.9173C70.303 35.6272 70.1787 37.2709 69.0392 38.0351C68.3994 38.5076 67.3661 38.7472 65.9667 38.7472C63.2627 38.7427 61.4562 37.7592 60.64 35.4871C60.5632 35.2745 60.3213 35.1434 60.102 35.2022L54.4701 36.6605C54.1219 36.7509 53.9162 37.1126 54.0202 37.4563C54.6532 39.5069 55.8764 41.2071 57.6693 42.4053C63.69 46.4501 77.1196 45.4123 76.9229 35.9347C76.9229 34.0853 76.439 32.5909 75.4804 31.4876C74.5422 30.4091 73.258 29.5681 71.6618 28.9893H71.6663Z" fill="#0A4EE4"/>
<path d="M50.4657 17.3262H44.1692C43.8196 17.3262 43.5361 17.6096 43.5361 17.9592V42.7135C43.5361 43.0632 43.8196 43.3466 44.1692 43.3466H50.4657C50.8153 43.3466 51.0988 43.0632 51.0988 42.7135V17.9592C51.0988 17.6096 50.8153 17.3262 50.4657 17.3262Z" fill="#0A4EE4"/>
<path d="M50.895 5.32113C51.1075 3.05605 49.4436 1.04755 47.1785 0.835033C44.9134 0.622515 42.9049 2.28645 42.6924 4.55154C42.4799 6.81662 44.1438 8.82511 46.4089 9.03763C48.674 9.25015 50.6825 7.58622 50.895 5.32113Z" fill="#0A4EE4"/>
<path d="M14.3368 17.2031C6.76065 17.2031 0.620117 23.3437 0.620117 30.9199C0.620117 38.496 6.76065 44.6366 14.3368 44.6366C21.913 44.6366 28.0536 38.496 28.0536 30.9199C28.0536 23.3437 21.913 17.2031 14.3368 17.2031ZM14.3368 37.6527C10.6177 37.6527 7.60396 34.639 7.60396 30.9199C7.60396 27.2007 10.6177 24.187 14.3368 24.187C18.056 24.187 21.0697 27.2007 21.0697 30.9199C21.0697 34.639 18.056 37.6527 14.3368 37.6527Z" fill="#0A4EE4"/>
<path d="M46.7902 9.05486C44.5158 9.05486 42.6709 7.20999 42.6709 4.93555V9.28321C42.6709 11.5576 44.5158 13.4025 46.7902 13.4025C49.0646 13.4025 50.9095 11.5576 50.9095 9.28321V4.93555C50.9095 7.20999 49.0646 9.05486 46.7902 9.05486Z" fill="#E64E36"/>
</svg>
